# xmcd
#
# Track frame offsets:
# 150
# 19237
# 36065
# 54537
# 72425
# 85507
# 109082
# 123517
# 141530
# 158622
#
# Disc length: 2301 seconds
#
#
# Revision: 0
# Processed by: cddbd v1.5.2PL0 Copyright (c) Steve Scherf et al.
# Submitted via: FreeRIP 2.90 
#
DISCID=8408fb0a
DTITLE=Vince Gill - 
DYEAR=1900
DGENRE=Country
TTITLE0=When I Call Your Name
TTITLE1=Don't Let Our Love Start Slippin' Away
TTITLE2=Pocket Full Of Gold
TTITLE3=I Still Believe In You
TTITLE4=Liza Jane
TTITLE5=Go Rest High OnThat Mountain
TTITLE6=One More Last Chance
TTITLE7=Never Knew Lonely
TTITLE8=Prety Little Adriana
TTITLE9=What The Cowgirls Do
EXTD=
EXTT0=
EXTT1=
EXTT2=
EXTT3=
EXTT4=
EXTT5=
EXTT6=
EXTT7=
EXTT8=
EXTT9=
PLAYORDER=
